<svg version="1.0" xmlns="http://www.w3.org/2000/svg" width="1066.667" height="1066.667" viewBox="0 0 800 800"><path d="M156.3 206.2c.2.7 1.2 1.3 2.2 1.3 1 0 2-.6 2.3-1.3.2-.7-.6-1.2-2.3-1.2-1.7 0-2.5.5-2.2 1.2zm-15 1c-3 .8-5 2.4-4.1 3.3.5.6 9.2-1.5 10.1-2.4 1.3-1.3-2.5-1.8-6-.9zm32.2.9c-1 1.5.3 2.5 1.6 1.2.7-.7.7-1.3.1-1.7-.6-.3-1.4-.1-1.7.5zm-3.5 1.3c0 1.5 1.8 3.1 2.6 2.3.7-.7-.7-3.7-1.7-3.7-.5 0-.9.6-.9 1.4zm9.5-.4c-.3.5-.1 1 .4 1 .6 0 1.1-.5 1.1-1 0-.6-.2-1-.4-1-.3 0-.8.4-1.1 1zm439.5 5.5c0 2.2.4 2.5 3.6 2.5 4 0 7.7-1.6 6.9-3.1-.4-.5-1-.7-1.5-.4-.5.3-1.1.1-1.5-.5-.3-.5-2.2-1-4.1-1-3 0-3.4.3-3.4 2.5zm-7 2c-.7.9-1.1 1.8-.8 2 .3.3 1.1-.1 1.8-1s1.1-1.8.8-2c-.3-.3-1.1.1-1.8 1zm-411.3.2c-4.8.3-6.7.8-6.4 1.6.5 1.6 9.3 2.1 12.8.6 2.9-1.1 4-3.1 1.7-2.7-.7.1-4.4.3-8.1.5zM669 219c0 .5.5 1 1.1 1 .5 0 .7-.5.4-1-.3-.6-.8-1-1.1-1-.2 0-.4.4-.4 1zm-13.8 2.7c-.6.2-1 .9-.6 1.4.8 1.4 4 1.1 5.4-.6 1-1.3.9-1.5-1.1-1.4-1.3 0-3 .3-3.7.6zm-428.6 35.6c-1.5 1.1-1.7 2.1-1.2 5.8.4 2.4.7 8.5.7 13.5-.1 10.2.9 12.6 5.7 13 3.4.2 11.1 4.1 16 8.2 3.3 2.7 7.8 12.9 8.9 20 .5 3.3.6 3.4 4.7 2.8 2.2-.4 8.2-.9 13.1-1.2 7.4-.4 9.2-.9 10.4-2.5.7-1 2.4-1.9 3.8-1.9 3.2 0 6.3-1.7 6.3-3.4 0-.8-.7-2.7-1.5-4.2-2.3-4.5-1.9-5.6 1.8-5.4 4.7.3 4.9.2 8.2-2.6 2.2-1.9 2.6-2.7 1.6-3.3-1-.7-1.1-1.3-.1-3 1.1-2.1 1-2.2-2.3-1.6-2.9.6-3.7.3-4.6-1.4-.7-1.2-2.2-2.1-3.5-2.1-1.3 0-3.5-1.4-5.2-3.3-1.6-1.7-4.5-4.4-6.4-5.9l-3.5-2.7 2.3-1.9c2.4-1.9 2.1-3.2-.9-3.2-1 0-3.1-1.1-4.7-2.5-1.6-1.3-3.1-2.2-3.4-2-.2.3-5.2-1.3-11-3.5-9.7-3.6-24.4-7-30.7-7-1.5 0-3.5.6-4.5 1.3zm20.6 19.8c-1.7.3-4.3 1.4-5.6 2.3-3.3 2.1-8.6 2.2-8.6.1 0-1.8 3.9-3.5 8-3.5 1.6 0 3.1-.4 3.5-1 .3-.6 1.6-.5 3.2.3l2.6 1.2-3.1.6zm12.8 22.3c0 .3-.4.8-1 1.1-.5.3-1 .1-1-.4 0-.6.5-1.1 1-1.1.6 0 1 .2 1 .4zm-51.6-38.1c-7.9 3.5-15.1 8.5-20 14.1-3.9 4.4-4.5 5.5-4 8.5.4 2.8.2 3.2-1.3 2.8-3.1-.8-4.6 3.1-4.7 12.3-.2 13.5-.3 14.8-1.4 12.8-.6-.9-1.1-3.9-1.2-6.6-.2-5-1.8-6.4-1.8-1.7 0 1.4-.5 4.5-1.2 6.9-1 3.8-.9 4.8.7 7.2l1.8 2.9 1-3 1.1-3 1.2 4.9c.7 2.8 1 5.4.6 6-.3.6-.6 2.7-.5 4.6.1 2.7 0 2.9-.4.7-.2-1.5-.9-2.7-1.6-2.7-.8 0-.8-.3 0-1.1 1.1-1.1.6-4.9-.6-4.9-.3 0-1.3.4-2.1.9-1.2.8-1.2 2.3-.3 9.6.6 5.5 1.6 9.3 2.7 10.3 1.5 1.5 1.6 1.4 1.6-1.6 0-2 .4-3.1 1-2.7.6.3 1 2.5 1 4.8 0 6.8 2.4 14.1 6.6 20.4 4.6 6.8 25.8 28.3 27.9 28.3 2 0 3-4.2 2.9-12.2 0-4 .4-6.6 1-6.5 1.7.3 1.9-3.4.2-4.6-1.2-.9-1.6-3-1.7-8l-.1-6.7h-3.9c-3.3 0-3.9-.3-3.9-2.1 0-2.9 1.8-5.9 3.5-5.9.8 0 1.5.4 1.5.9 0 1.2 5.8 4.2 6.4 3.2.3-.4-1.4-6-3.6-12.6-5.5-16.1-5.6-23.9-.7-34.6 3.1-6.7 3.4-8.2 3.4-16.5 0-5.2-.5-9.7-1.1-10.5-.7-.8-.8-2.2-.3-3.4 1.3-3.3 1-8.4-.7-11-2-3-2.5-3-9-.2zm2 9.3c.3.9.2 2.2-.2 3-.7 1.3-1 1.3-2.1 0-1.4-1.6-.9-4.6.8-4.6.5 0 1.2.7 1.5 1.6zm-6.4.4c0 .5-.4 1-1 1-.5 0-1-.5-1-1 0-.6.5-1 1-1 .6 0 1 .4 1 1zm-5.7 9.9c-.3 1 0 2.1.5 2.5.9.5.5 5.6-.4 5.6-1.5 0-7.4-3.1-7.4-3.9 0-1.1 5.7-6.1 7-6.1.4 0 .6.8.3 1.9zm-9.8 62.1c-.3.5-1 1-1.6 1-.5 0-.9-.5-.9-1 0-.6.7-1 1.6-1 .8 0 1.2.4.9 1zm357.2-83.3c-.4.3-.7 1.9-.7 3.5 0 3.4-2.8 3.8-5.5.8-2.5-2.8-3.6-.9-2.8 4.9.6 4 .4 4.4-1.2 3.7-1-.4-2.5-.1-3.4.8-.9.8-2.5 1.6-3.6 1.8-1.1.2-1.9 1-1.8 1.8.2 1.5-4.4 5.3-11.5 9.6-4.1 2.6-5.3 4.3-4.6 6.6.6 2.1-2.3 6.8-4.2 6.8-.9 0-1.4 1.1-1.4 3.1 0 3.6-5.1 9.4-7.5 8.5-2.2-.8-4.5.4-4.5 2.4 0 1.8 5.3 7 7.1 7 .5 0 .9.4.9 1 0 .5-.6 1-1.3 1-.7 0-2.2.6-3.3 1.4-1.9 1.4-1.9 1.5.4 3.8 2.8 3 2.8 4.1.1 3.3-1.7-.6-2-.3-1.7 1.7.2 1.7.9 2.2 2.6 2.1 1.7-.2 2.2.2 2.2 2.2 0 2.4-.4 2.9-5.1 6.5-2.4 1.8-2.6 2.5-2.2 7.2.2 2.9.3 6.2.1 7.3-.2 1.6-.2 81.2.1 102 .1 8 5.8 26.5 8.2 26.5 1.5 0 2.3-5.2 1.2-8-.5-1.4-.7-3.4-.3-4.5.8-2.4 2-.7 2.1 3.2 0 1.5.3 5.2.6 8.1.4 5 .6 5.2 3.1 5 2.3-.3 2.7.1 2.6 2.2-.1 1.4-.4 3.2-.8 4.2-.6 1.2.9 3 6 7.2 7.8 6.5 21.2 11.8 24.5 9.8 1.9-1.2 3.5 0 2.4 1.8-.9 1.4 2.3 1.2 7-.5 3.4-1.2 4.1-1.2 5.6.1 2 1.8 9 1 13.5-1.7 2.2-1.3 3.4-1.5 4.1-.8 3.3 3.3 23.3-11.9 30.4-23 3.3-5.1 3.5-6.1 1.5-6.1-.9 0-.4-1 1.4-2.8 3-3.1 5.3-9.7 4.8-14-.2-2.2-.8-2.7-2.8-2.5-4.3.4-5.2.4-19.6-.3l-14-.7-5 5.3c-5.5 5.8-8.6 7.4-16.3 8.5-4.4.6-5.9.3-10.6-2-6.3-3-10-7.1-11.4-12.3-.6-2-1-11.1-1-20.1 0-14.4.2-16.6 1.7-17.7 1-.8 1.2-1.3.5-1.4-2.1 0-1.5-2.8 1-4.5 2.2-1.6 2.2-1.6.2-3.1-1.1-.8-1.9-2.4-1.7-3.4.2-1.1-.1-2-.6-2-1.3 0-1.5-14.2-.2-17.5.7-2 .6-3.2-.6-5-.9-1.5-1.3-3.2-.9-4.5.4-1.2.7-4.4.7-7.1-.1-2.7.3-5.1.7-5.3 1-.7.1-20.5-1-22.7-1.3-2.6.1-2.9 3.9-.8 2 1 4.2 1.9 4.9 1.9 1.6 0 1.7-1.6.1-2.6-.7-.5-.5-1.1.8-2.1 1.8-1.3 1.8-1.5-1-3.6-6.1-4.7-7.6-6.6-7.6-9.7 0-1.7.5-4 1.1-5.1.8-1.6.7-2.5-.5-3.8-2.4-2.6-2-4.9 1.5-8.3 2.2-2.2 2.9-3.8 2.6-5.5-.2-1.2 0-2.3.4-2.3.5 0 .8-1 .6-2.3-.2-1.7.8-2.7 4.5-4.5 6-3 11.6-3.8 16.2-2.2 6.4 2.1 13.4 9.4 14.4 14.9.8 5 .8 17.6-.2 20.5-.5 1.8-.4 5.9.3 11.3.9 6.3.9 8.8.1 9.8-.7.8-.8 2-.4 2.7.4.6.9 19 1 40.6.2 21.7.7 39.8 1.1 40.2.4.4 2.8 1.2 5.3 1.9 5.3 1.5 6.9 2.7 8.1 5.8.5 1.4 1.7 2.3 2.9 2.3 1.3 0 2 .7 2 1.9 0 1.1.5 2.3 1.1 2.7.8.5.7.9-.1 1.4-1.8 1.1-.4 4 1.9 4 2.7 0 3.3-3.5 1-5.6-3.2-2.9-.8-3.4 5.5-1.3 3.2 1.1 6.8 1.9 8 1.7 3.5-.5 2.4-3.1-1.9-4.4l-4-1.1 3-.7c5.6-1.4 5.5-.7 5.5-30.7 0-15.4.4-28.7.9-29.7.5-.9 1.2-2.5 1.5-3.5.5-1.4 1.3-1.6 4.5-1.1 4.5.7 4.8-.3 1.6-5.2-1.1-1.6-1.9-3.1-1.8-3.4 1.3-7 1.2-9-.3-9-.9 0-1.8.9-2.1 2-.7 2.6-2.8 2-2.9-.8-.1-1.2-.7-2.8-1.4-3.7-1.1-1.3-.9-1.5 1.1-1.5 1.3 0 3.5-.9 4.9-2l2.5-2h-3.2c-1.8 0-3.3.4-3.3 1 0 .5-.6 1-1.2 1-1 0-1.3-3.6-1.3-14.5 0-13.1-.2-14.5-1.7-14.5-2.4 0-2.3-1.7.1-2.5 1.1-.3 2.4-2 3-3.7.9-2.6.8-3.5-.5-4.9-1.3-1.4-1.5-2.9-1.1-6.4.6-4.3.5-4.5-1.8-4.5-2.8 0-3.2-.8-1.1-2.4 1.3-.9 1.3-1.7.2-4.9-3.4-9.4-15.7-25.2-21.6-27.7-1.6-.7-3-1.8-3-2.5 0-.6-3.2-2.4-7-3.9-6.7-2.7-10-2.9-10-.6 0 1.1-4.3 1.4-5.3.4-.3-.3-.1-1.5.6-2.5 1.6-2.6-.5-4.9-3.2-3.2-1.1.7-2.3.8-3.2.2-1.6-1-9.3-1.2-10.2-.2zm10 2.9c-.3.3-1.2.4-1.9.1-.8-.3-.5-.6.6-.6 1.1-.1 1.7.2 1.3.5zM575 267c.8.5 1.1 1.2.8 1.6-1 .9-3.8-.3-3.8-1.6 0-1.2 1-1.3 3 0zm-13 13c0 .5-.4 1-1 1-.5 0-1-.5-1-1 0-.6.5-1 1-1 .6 0 1 .4 1 1zm-53 24.6c0 .8-.4 1.4-1 1.4-.5 0-1-.9-1-2.1 0-1.1.5-1.7 1-1.4.6.3 1 1.3 1 2.1zm1.8 8.5c-.2.6-.8 1-1.3 1s-1.1-.4-1.3-1c-.2-.6.4-1.1 1.3-1.1s1.5.5 1.3 1.1zm-3.8 3.3c0 .3-.4.8-1 1.1-.5.3-1 .1-1-.4 0-.6.5-1.1 1-1.1.6 0 1 .2 1 .4zm71 4.1c0 .8-.4 1.5-1 1.5-.5 0-1-.7-1-1.5s.5-1.5 1-1.5c.6 0 1 .7 1 1.5zm-71.2 3.8c.2 1-.3 1.7-1.2 1.7-1 0-1.6-.9-1.6-2.1 0-2.4 2.3-2.1 2.8.4zm8.2 1.7c0 .5-.5 1-1.1 1-.5 0-.7-.5-.4-1 .3-.6.8-1 1.1-1 .2 0 .4.4.4 1zm-9.2 8.1c-.4 3.7-.2 5.2.8 5.6 2.1.8 1.7 3-.7 4.7-3.1 2.1-5.7.3-5.1-3.5.2-1.6.8-2.9 1.2-2.9.4 0 1.1-2 1.4-4.5 1-6.3 3-5.8 2.4.6zm7.9 3.1c-.3.8-.6.5-.6-.6-.1-1.1.2-1.7.5-1.3.3.3.4 1.2.1 1.9zm-1.1 10.5c-1.1 1.1-1.9-.6-1.1-2.4.8-1.7.8-1.7 1.2 0 .3 1 .2 2.1-.1 2.4zm-8.1 2.2c.3.5.1 1.2-.5 1.6-.5.3-1-.1-1-.9 0-1.8.6-2.1 1.5-.7zm-1.5 18.7c0 .8-.5 1.2-1 .9-.6-.4-.8-1.1-.5-1.6.9-1.4 1.5-1.1 1.5.7zm-.9 9.7c-1.3 1.3-1.4-.5-.3-4.3l.7-2.5.3 2.9c.2 1.6-.1 3.3-.7 3.9zm113.9-1.1c0 1.6-.3 1.9-1.1 1.1-.6-.6-.8-1.6-.5-2.2 1.1-1.7 1.6-1.3 1.6 1.1zM502.8 385c-.1 2.2-.5 4-1 4-.4 0-.8-1.8-.8-4s.4-4 1-4c.5 0 .9 1.8.8 4zm-.4 21.2c-.2 7.3-.5 19.4-.6 26.8l-.2 13.5-.6-12c-.6-14.3 0-42.6 1-42 .4.2.5 6.4.4 13.7zm7.1-6.1c-.4.5-1.3.9-2.2.9-1.3 0-1.3-.3-.3-1.5 1.3-1.5 3.5-1.1 2.5.6zm6.4 11.5c-1.4 1.8-2.4 1.1-1.5-1.1.3-.9 1.1-1.3 1.6-1 .8.5.7 1.1-.1 2.1zm-12.8 42.9c.1 1.6.1 5.9-.1 9.5l-.3 6.5-.7-5c-1.1-7.1-1.2-17.4-.1-15.5.5.8 1 2.8 1.2 4.5zm76.3 12.4c.3.5-.1 1.2-1 1.5-2.2.9-2.4.8-2.4-.9 0-1.6 2.5-2.1 3.4-.6zM527 492c0 .5-.7 1-1.6 1-.8 0-1.2-.5-.9-1 .3-.6 1-1 1.6-1 .5 0 .9.4.9 1zm46 13c0 3.1-1.7 3.9-3.8 1.8-.8-.8-1.2-.9-1.2-.1 0 1.3-2.8 4.3-4 4.3-.4 0-1-1.1-1.3-2.5-.6-3.2 3.2-6.5 7.4-6.5 2.6 0 2.9.4 2.9 3zM394.7 264c-20.2.6-20.1.5-21 8.8-.8 7.4-.2 10.3 2.3 12.2l2.4 1.8-2.9-.6c-2.4-.4-2.7-.2-2.2 1.2.4 1 .7 2.4.7 3.2 0 .7 1.6 2 3.6 2.9 3.8 1.6 4.2 3.8.7 4.3-2.3.3-3.5 4.1-3.4 10.4 0 4.2-2.4 7.2-4 4.7-.5-.8-.9-2.6-.9-4.2 0-1.5-.4-2.7-1-2.7-.5 0-1 2.4-1 5.2 0 2.9-.4 5.9-.9 6.7-.6.9-.5 2.1.2 3.3 1.7 2.7-.3 5.2-4.4 5.6-1.9.1-4.7.8-6.2 1.4l-2.8 1.1 2.2 2.3c2.8 3 3.5 3 4.3-.1.5-1.9 1.3-2.5 3.2-2.5 2 0 2.5.4 2 1.6-.3.9-.9 3.3-1.2 5.4-.6 3.4-.3 3.9 2.4 5.6 2.6 1.5 2.9 2.1 2 3.7-.7 1.4-1.3 1.6-2.1.8-2-2-2.9-1.2-2.5 2 .3 2 0 3.3-.9 3.6-.7.3-1.3 1-1.3 1.7 0 .6-1.8 1.2-4 1.3-3.3.2-4.5-.3-7.6-3.3l-3.7-3.5-4.8 1.6c-3.3 1.1-4.6 2.1-4.3 3 .4.9-1.2 2.5-4.3 4.4-5 3.2-7.7 3.8-8.8 2.1-.4-.6-1.1-.8-1.6-.5-.5.4-.9-1-.9-2.9 0-3.7-1.3-4.8-2.4-2-.3.8-1 1.3-1.5 1-.5-.4-1.6-.3-2.5 0-1.2.5-1.4 1-.6 1.9.8 1 .4 1.8-1.9 3.1-1.7 1-3.1 2.2-3.1 2.6 0 .4-2.2 1-5 1.4-4.8.6-5.5 1.2-5 4.3.1.7-.4 3.5-1 6.2-.9 3.5-1.7 4.9-2.9 4.9-2.4 0-4.1 2-4.1 4.7 0 1.9.5 2.3 3 2.3 2.8 0 2.9-.2 2-2.6-.9-2.2-.8-2.5.7-2.2 1.2.2 2.7-1.1 4.6-4 2.4-3.7 3.2-4.3 5.4-3.9 1.9.3 2.7 0 3-1.3.3-1 1.4-1.8 2.6-1.9 1.2 0 3.9-.1 6-.2 2.1 0 5-.7 6.5-1.5s3.9-1.4 5.5-1.4c1.5 0 2.7-.5 2.7-1.1 0-.9-2.2-1-7.5-.6l-7.5.5v-3.4c0-3.6.9-4.1 4.3-2.2 1.2.6 5.5 1.2 9.5 1.2 6.3.1 7.2-.1 7.2-1.7 0-1.1.5-1.5 1.1-1.1 1.5.9 17.9 1.1 17.9.2 0-.4 1.1-.8 2.5-.8 1.8 0 2.5.5 2.5 1.9 0 1.5-1 2-4.5 2.5-2.5.4-5 .4-5.6 0-2.5-1.5-7.9-1-8.5.8-.4 1.4-.9 1.5-2.4.6-1.4-.9-2.4-.8-4.5.6l-2.7 1.8 2.8 1.9c3.3 2.1 5.6 2.3 11.6.9 2.4-.5 6-1.2 8.1-1.5 2.1-.4 4.7-1.5 5.8-2.6 1.9-1.9 1.9-1.9 3 .8.5 1.5.9 4.1.7 5.7-.3 3.1-1.4 3.6-5 2.1-1.5-.6-1.8-.2-1.8 2s-.3 2.5-2 2c-2.6-.8-2.5-.4.5 4.1 1.9 2.9 2.6 3.3 3.1 2 .9-2.3 1.8-2 3.4.9 1.8 3.3 3 3.2 3-.4 0-2 .6-3.2 1.9-3.6 3.3-1 4.5-3.2 2.8-5-1.8-1.7-1.1-5.5.9-5.5.9 0 1.4 1.2 1.4 3.5 0 4.2 1.6 4.5 5.8 1 3.7-3.1 3.9-3.1 4.5.2.4 2-.2 3.6-2 5.7-1.7 2-2.1 3.2-1.4 3.9.6.6 1.1 1.9 1.1 2.8 0 .9.7 2.2 1.5 2.9 3.1 2.6 1.6 3.5-6.1 3.7-5.2.1-8.1.6-9.3 1.7-1 .9-2.6 1.3-3.9.9-1.3-.3-2.2-.1-2.2.6 0 1.4-3.7 1.5-4.2.1-.5-1.6-4.8.1-4.5 1.9.1.9-.2 3.5-.7 5.9-.7 3.6-.5 4.5 1 5.7 1.6 1.1 1.6 1.5.5 2.9-1 1.2-1.7 1.3-2.7.5-1.8-1.5-2.7 5.4-2.3 17.3.1 1.4-.5 4-1.3 5.6-.8 1.6-1.3 4.3-1 6.1.8 5.8-.8 14-3.4 16.8-2.3 2.5-2.9 4.5-3.7 12.8-.3 2.2-1.7 9.8-3.2 17-1.4 7.1-2.7 15.9-2.8 19.5l-.2 6.5 11.5-.1c28.1-.1 29-.4 29-8.1 0-2.4.6-5.2 1.2-6.3.9-1.4 1-2.2.1-3.1-.8-.8-.7-2 .4-4.8 1.7-4.1 5.3-22.8 5.3-27.7 0-5.5 7.7-9.6 16.3-8.7 3.4.3 5.7.1 6.1-.5.5-.8 1.4-.8 3.2 0 2 .9 3 .9 4.6-.1 1.4-.8 2.4-.9 3-.3.7.7 1.8.7 3.4 0 1.8-.8 2.9-.7 4.6.4 1.9 1.3 2.2 2.3 2.2 9.5.1 7.3.3 8.3 2.5 10 2.1 1.7 2.2 2.2 1.1 4.2-1 1.9-.9 2.8 0 4.7.9 1.6 1 2.7.3 3.6-1.2 1.5.1 15.2 2 21.9l1.3 4.4 17.4.2c10.9.1 17.9-.2 18.7-.8.7-.6 1.2-3.2 1.2-5.7-.1-6.6-3.7-35.4-5.5-43-.8-3.5-1.2-6.7-.9-7.2.3-.5.1-2-.5-3.4-.5-1.5-1.4-5.2-1.9-8.4-.6-3.1-1.5-8.3-2-11.5-.6-3.2-1.1-9.5-1.2-14-.2-6.1-.9-9.5-2.6-13.4-1.8-3.8-2.2-6.1-1.8-8.7.4-1.9.2-4.3-.4-5.5-1-1.8-.9-2.2 1.4-3.1 3.3-1.3 3.2-2.6-.4-3.8-2.5-.9-3.1-1.8-4.1-6.7-.7-3.2-1-7.6-.8-9.9.3-2.2-.1-5.8-.8-7.8-1-2.8-1-3.8-.1-4.1.9-.3.9-.8 0-1.8-.7-.7-1.3-3.4-1.3-6 0-2.9-.6-5.1-1.5-5.9-3.3-2.7-7.2-18.6-9-36.5-.3-3.3-.8-7.6-1-9.5-.2-1.9-1.1-6-1.9-9-.9-3-1.6-6.5-1.6-7.8 0-1.8-.4-2.3-1.6-1.8-.9.3-2 .6-2.5.6-.6 0-.9.8-.7 1.7.2 1.2-.3 1.8-1.7 1.8-1.7 0-2-.7-2.1-4.1v-4.1l4.3.3c5.3.3 6.9-1.9 3.3-4.6-1.4-1-2-2.2-1.5-2.9.4-.7-.1-2.1-1.1-3.2-1.9-2.1.5-2-34.7-.9zm10.7 76.6c.8 7.9 2.9 14.4 5 15.6 1.2.7 1.3 1.4.6 3.4-1.3 3.3-1.1 9.6.4 15.9 1 4.5 1.4 5 3.6 4.7 5.6-.7 6.3-.7 6.6.3.2.5-1.7 1.8-4.2 2.9l-4.5 1.9.6 4.1c.9 5.2 2.2 7.6 4 7.6 1.8 0 1.9 2.3.4 5.1-.8 1.6-.6 3 1 6.5 1.2 2.4 2.1 5.4 2.1 6.7 0 1.2.9 4 2 6.2 2.5 5 2.5 5.7-.2 5.3-1.4-.2-2.9-1.5-3.8-3.6-1.8-3.8-5.3-4.1-5.8-.4-.3 1.8.1 2.3 1.5 2 2.7-.4 3 3.9.4 6.3-2.6 2.5-3.7 2.4-4.4-.3-.5-1.8-.8-1.9-2.2-.8-1.5 1.2-1.5 1.4-.1 2.2.9.5 1.6 1.6 1.6 2.5 0 1.3-.5 1.2-2.5-.7-3.1-2.9-2.9-5.2.5-6 1.8-.4 2.6-1.3 2.8-3.4.2-1.6-.2-3.3-1-3.7-.7-.5-5-.9-9.6-.9-11.5 0-11.6-.5-6.8-18.3 2.7-9.9 3.4-14.1 2.7-15.8-.5-1.4-.5-5.1 0-8.8.5-3.6.7-7.2.4-8.2-.3-1 .1-3.4 1-5.4 2.4-5.9 2-7.5-1.7-7.5-6.6-.1-9-5-3.2-6.4 2.2-.6 3.2-.3 4.5 1.3 1.6 1.9 1.7 1.8 2.3-3.7 1.7-14.3 4.9-17.8 6-6.6zM392 347c0 .5-.4 1-1 1-.5 0-1-.5-1-1 0-.6.5-1 1-1 .6 0 1 .4 1 1zm28 .9c0 .6-.4 1.3-1 1.6-.5.3-1-.1-1-.9 0-.9.5-1.6 1-1.6.6 0 1 .4 1 .9zm-32 2c0 1.2-2 2.5-2.7 1.8-.7-.7.6-2.7 1.8-2.7.5 0 .9.4.9.9zm30 1.5c0 1.1-1.9 1.5-2.5.6-.3-.5.1-1 .9-1 .9 0 1.6.2 1.6.4zM370 364c0 .5-.2 1-.4 1-.3 0-.8-.5-1.1-1-.3-.6-.1-1 .4-1 .6 0 1.1.4 1.1 1zm-54 2.5c0 1.7-.2 1.8-2.4.9-2.3-.9-2-2.4.4-2.4 1.1 0 2 .7 2 1.5zm70.1 1.5c.5 0 .9.4.9.9s-2 1.1-4.5 1.3c-2.5.2-4.5 0-4.5-.5 0-1.1 4.2-2.7 5.8-2.1.8.2 1.8.4 2.3.4zm47.7 20.8c.2.8-1.2 1.2-4.7 1.2-5.3 0-6.7-1.5-2.9-2.9 2.7-1 7 0 7.6 1.7zm-9.7 5.8c1.2 1.4 1.1 1.6-.5 1.3-1.1-.2-2.1-1-2.4-1.7-.5-1.7 1.3-1.5 2.9.4zm12.9-.6c0 .5-.4 1-1 1-.5 0-1-.5-1-1 0-.6.5-1 1-1 .6 0 1 .4 1 1zm-66.4 9.2c-.3 1.3-.6 3.1-.6 4 0 1.3-.8 1.8-2.6 1.8-2.1 0-2.4-.3-1.5-1.4.6-.7.8-2.1.5-3.1-.7-1.8 1-3.5 3.5-3.5.9 0 1.1.7.7 2.2zm-5.6-.8c0 .3-.4.8-1 1.1-.5.3-1 .1-1-.4 0-.6.5-1.1 1-1.1.6 0 1 .2 1 .4zm-3 5.5c0 .4-.5 2.3-1.2 4.2-1.2 3.4-1.2 3.4-1.9.9-1.3-4.5-1-6 1.1-6 1.1 0 2 .4 2 .9zm73 1.8c0 .5-.4 1.5-1 2.3-1.1 1.8-2.5.7-1.7-1.5.6-1.5 2.7-2.1 2.7-.8zm1.7 3.5c-.3.8-.6.5-.6-.6-.1-1.1.2-1.7.5-1.3.3.3.4 1.2.1 1.9zm2.8 4.7c.7 1.2-2.9 3.3-3.9 2.4-.3-.3-.6-1.2-.6-2 0-1.5 3.6-1.8 4.5-.4zm-6.5 4.2c0 .6.7.8 1.6.5 1-.4 1.4-.1 1.2.6-.5 1.5-3.3 2.2-5.5 1.4-1.2-.5-1.3-.9-.3-2.1 1.5-1.8 3-2 3-.4zm-51 9.9c0 .6 1.2 1.5 2.7 2.1 2.5.9 2.6 1.1.9 2.7-1.6 1.6-1.8 1.6-3-.1-.7-.9-2.4-1.7-3.6-1.7-2.2 0-2.3-.1-.5-2 2-2.2 3.5-2.6 3.5-1zm45.5.8c0 1.8-2 1.5-2.3-.4-.3-1 .1-1.5 1-1.2.7.3 1.3 1 1.3 1.6zM410 443c0 .5-.4 1-1 1-.5 0-1-.5-1-1 0-.6.5-1 1-1 .6 0 1 .4 1 1zm28.6 1.7c2.1 2.9 1.7 5.3-.9 5.3-2 0-2.3-.5-2.3-3.5 0-3.8 1.1-4.5 3.2-1.8zm-30.3 5c-.8 5.1-1 5.1-1.5.4-.2-2.8 0-4.1.9-4.1.8 0 1 1.2.6 3.7zm39.7-2.2c0 .8-.6 1.5-1.2 1.5-.7 0-2.3.3-3.5.6-1.7.5-2.3.2-2.3-.9 0-1.5 1.7-2.3 5.3-2.6.9 0 1.7.6 1.7 1.4zm5.8 12c-.8.9-4.8-.8-4.8-2 0-.8-1-1.5-2.2-1.7-1.3-.2-2.4-1.1-2.6-2.2-.3-1.6 0-1.8 2.2-1.2 1.9.5 2.8.2 3.3-1 .4-1.1 1.1-.3 2.6 3 1.1 2.6 1.8 4.8 1.5 5.1zm-2 7.7c-.2.6-1 1.4-1.6 1.6-.7.2-1-.2-.6-1.2.7-1.8 2.8-2.2 2.2-.4zm-12 5.1c.2 1-.3 1.7-1.1 1.7-1.6 0-3-2.4-1.9-3.4 1-1 2.7-.1 3 1.7zm9.2-.8c0 .8-.9 1.5-2 1.5-2 0-2.6-1.1-1.3-2.3 1.2-1.3 3.3-.7 3.3.8zm-88 2.9c0 2-2.6 4-3.5 2.6-1-1.6.2-4 2-4 .8 0 1.5.6 1.5 1.4zm9.8 6.7c-.2.6-.8 1-1.3 1s-1.1-.4-1.3-1c-.2-.6.4-1.1 1.3-1.1s1.5.5 1.3 1.1zm64.7 3.9c-.3.5-1 1-1.6 1-.5 0-.9-.5-.9-1 0-.6.7-1 1.6-1 .8 0 1.2.4.9 1zm-75 4.4c11.9 3.6 11.9 3.6 11.2 4.2-.6.7-22.7-6.4-22.7-7.3 0-.3.6-.3 1.3 0 .6.2 5.3 1.6 10.2 3.1z"/><path d="M295.5 282c-.3.5.1 1 .9 1 .9 0 1.6-.5 1.6-1 0-.6-.4-1-.9-1-.6 0-1.3.4-1.6 1zm30.4 9.3c1.5 1.9 4.1 2.3 4.1.7 0-.6-.4-1-.9-1s-1.8-.3-2.8-.7c-1.6-.6-1.6-.5-.4 1zm14.1 2.2c1.6 1.7 2.7 2.2 3.4 1.5.5-.5 2-1 3.3-1 1.3 0 2.3-.4 2.3-.9 0-.9-4.8-2.1-8.8-2.1h-2.5l2.3 2.5zm-30.5-.5c-.3.5-.3 1.1.2 1.2.4 0 1.3.2 1.8.3.6.2 1.4.3 1.9.4.5 0 .3.8-.4 1.6-.9 1.1-.8 2 1 4.5 1.8 2.6 4.9 5 6.3 5 .8 0 1.7-9.7 1.1-11.5-.5-1.3-.9-1.4-1.6-.3-.7 1-1.1 1-2.2-.5-1.4-1.8-7.1-2.4-8.1-.7zm22.3-.3c.7.3 1.6.2 1.9-.1.4-.3-.2-.6-1.3-.5-1.1 0-1.4.3-.6.6zm23.8.1c-.3.6-.1 1.4.5 1.7 1.5 1 2.5-.3 1.2-1.6-.7-.7-1.3-.7-1.7-.1zm-48.6 4.7c0 .9.6 1.2 1.5.9.8-.4 1.2-1 .9-1.5-.8-1.4-2.4-1-2.4.6zm42 33.1c-1.4.7-3.3 1.4-4.2 1.4-.9 0-1.9.4-2.2.9-.3.5 1.7.9 4.4.9 4.6 0 5-.2 5-2.4 0-1.3-.1-2.4-.2-2.3-.2.1-1.4.7-2.8 1.5zm12.5 2.4c-.3.5.1 1 .9 1 .9 0 1.6-.5 1.6-1 0-.6-.4-1-.9-1-.6 0-1.3.4-1.6 1zm-8.3 17.2c1.8 2.6 4.8 3.6 4.8 1.6s-2.1-3.8-4.3-3.8c-1.8 0-1.8.2-.5 2.2zM221.5 354c-1.3 1.4-1.6 2.8-1.1 5.5.8 4.2 2.1 4.4 5.7.9l2.8-2.7-2.2-2.8c-2.5-3.4-2.8-3.5-5.2-.9zm8 13c-.3.5-.1 1 .4 1 .6 0 1.1-.5 1.1-1 0-.6-.2-1-.4-1-.3 0-.8.4-1.1 1zm11.5 2.1c0 1.4 6 7.4 8 8.1 1.2.4 1.3.8.3 2-.7.8-1 1.8-.7 2.1.3.3-1.2 2.3-3.5 4.5l-4.1 3.9.4 10.2c.4 9.6 1.3 13.3 2.3 10.3.7-1.9 2.3-1.4 2.3.8 0 1.3-.5 1.8-1.5 1.4-2-.8-2 2 0 3.6.9.7 1.3 2.1.9 3.5-.4 1.6.6 3.9 3.5 8 5.8 8.3 8.1 15.1 8.1 24.2 0 4.1-.5 9.2-1.1 11.3-.9 3-.8 5 .9 11.1 1.1 4 1.9 7.5 1.7 7.7-.2.2-1.5-1.9-2.9-4.7-1.5-2.8-2.8-5.1-3.1-5.1-.2 0-2.4 1.3-4.8 3-2.4 1.6-6.6 3.4-9.3 4.1-2.7.6-5.4 1.3-6.1 1.5-3.1.8-4.3 15.8-1.8 22.8.8 2.2 1.2 4.3.9 4.8-.3.5-.3 2.2.1 3.8.6 2.6.9 2.8 3.2 1.9 1.8-.7 3-.6 3.7.1 1.8 1.8 6.4 1.1 8-1.2.9-1.2 1.6-1.7 1.6-1.1 0 1.8 9.9 1 14-1.2 8.7-4.5 14-8.8 14-11.2 0-1.6.5-2.3 1.3-2 3.9 1.5 12.8-13.4 16.8-28 1.8-6.6 2.1-9.6 1.7-19.3-.5-11.7-2.6-19.8-4.8-18.5-1.3.8-6-.2-6-1.3 0-.4 1-1.2 2.3-1.7 3.4-1.6 2.6-6.1-2.8-15.1-7.2-11.9-10.5-16-20.7-26.1-9.1-9-21-19.3-22.2-19.3-.3 0-.6.5-.6 1.1zm29.5 34c-1 1.5-2.5 1-1.9-.6.4-.8 1-1.2 1.5-.9.5.3.7 1 .4 1.5zM255 416c.9 1.7.7 2-1.6 2.6-2.9.7-4.9-.7-4.1-3 .9-2.2 4.4-2 5.7.4zm12.7 1.5c1 2.7-.6 3-2.9.7l-2.2-2.2h2.2c1.2 0 2.5.7 2.9 1.5zm18.3 4.4c0 .6-.4 1.3-1 1.6-.5.3-1-.1-1-.9 0-.9.5-1.6 1-1.6.6 0 1 .4 1 .9zm4.5 22.1c.3.5-.1 1-.9 1-.9 0-1.6-.5-1.6-1 0-.6.4-1 .9-1 .6 0 1.3.4 1.6 1zm-18.1.9c.3.4-.6 1.8-1.9 3.1-2.2 2-2.5 2.1-3.1.6-1.1-2.9 3.4-6.3 5-3.7zM287 461c0 .5-.4 1-.9 1-.6 0-1.3-.5-1.6-1-.3-.6.1-1 .9-1 .9 0 1.6.4 1.6 1zm-7.5 1c.3.5.1 1-.4 1-.6 0-1.1-.5-1.1-1 0-.6.2-1 .4-1 .3 0 .8.4 1.1 1zM241 488c0 .5-.4 1-1 1-.5 0-1-.5-1-1 0-.6.5-1 1-1 .6 0 1 .4 1 1zm4 17.9c0 2.7-1.5 4.9-2.6 3.9-.7-.8.8-6.8 1.7-6.8.5 0 .9 1.3.9 2.9zm321-125.4c.7.9 1.5 1.3 1.7 1.1.7-.7-.7-2.6-1.9-2.6-.6 0-.6.6.2 1.5zm59.5 1.6c-.4 1.1-.5 2.2-.3 2.3 7.2 5.3 9.6 5.6 7.5.8-2.2-5.1-6.1-6.7-7.2-3.1zm-268.8 1.5c-1.5 1.5-.7 4.5 1.1 4.2.9-.2 1.7-1.2 1.7-2.2 0-2-1.6-3.1-2.8-2zm-135.4 1.6c-1 1.7-.5 4.7 1.3 7.2 1.9 2.8 1.8 3.6-.6 3.6-3 0-2.5 1.1 2.9 6.4l5 4.9 1.4-3.6c2.4-5.5-.2-13.4-5.7-17.9-2.5-2.1-3.2-2.2-4.3-.6zm417.1 2.8c.1 2 .7 3.2 1.9 3.6 2.1.7 3.9-.6 2-1.3-.7-.3-1.3-1.6-1.3-2.9 0-1.4-.6-2.4-1.4-2.4-.8 0-1.3 1.1-1.2 3zm7.2.5c1.3 2.1 2.4 2.5 6.2 2.5 3.1 0 4.9.5 5.8 1.7 1.1 1.6 1.3 1.6 1.9-1 1-3.8-1-6-3-3.3-1.6 2.1-4.5 1.5-4.5-.9 0-1.1-1.1-1.5-4-1.5h-4l1.6 2.5zm-286 2.4c-.4.7-.5 1.5-.2 1.8.9.9 1.9-.4 1.4-1.8-.4-1.1-.6-1.1-1.2 0zM198 441.1c-1.9.5-6.8 1.1-10.9 1.4-4.4.4-7.9 1.2-8.8 2.1-.8.7-2.3 1.4-3.3 1.4-1.1 0-2.4.9-3 1.9-1.3 2.5-1.3 10.8 0 11.6.6.4.8 1 .5 1.5-.9 1.4 4.9 17.4 8.1 22 3.1 4.7 4.7 5.3 5.2 2 .4-2.6 2.7-2.6 4.6.2 2 2.8 2 4.2.1 3.4-1.1-.4-1.5.2-1.5 2.8 0 2.4 1 4.5 3.9 7.7 4.5 5.2 13.8 10.1 15 8 .7-1 1.3-1 2.9-.2 2.9 1.6 3.2 1.5 4.6-2.2 1.3-3 2-9.9 1.8-17.7 0-1.9-.1-5.7-.2-8.4-.1-3.5-1.2-7.3-3.8-12.5-2.7-5.8-3.7-9-3.8-13.8-.2-3.4-1-7.5-1.9-9.2-1.7-3.3-3.1-3.6-9.5-2zm-4.3 6.1c-.3.8-.6.5-.6-.6-.1-1.1.2-1.7.5-1.3.3.3.4 1.2.1 1.9zM186 460c0 .5-.4 1-1 1-.5 0-1-.5-1-1 0-.6.5-1 1-1 .6 0 1 .4 1 1zm12.1 6.7c-.9 1.6-1 1.4-1.1-1.2 0-2.1.3-2.6 1.1-1.8s.8 1.6 0 3zM395.3 550c-5 2.2-8.3 7-8.3 12.1 0 4.4 3.5 9.2 10.8 15 2.9 2.2 6 5.5 6.8 7.1 3 5.8-.7 11.8-8.1 13.2-6.2 1.2-11-2.8-12.9-10.7-1.2-5.2-2.8-3.4-4 4.8-.4 2.2-.9 5.2-1.2 6.7-.4 2.1-.2 2.8 1 2.8.9 0 1.6-.8 1.6-1.8 0-3 1-3.2 4.7-.6 4.2 2.8 12.7 3.3 17.3.9 6.9-3.6 10.9-14 7.7-20.1-.9-1.7-5-6.1-9.1-9.8-6.6-5.9-7.6-7.2-7.6-10.1 0-7 10.6-10.4 14.9-4.9 1.2 1.5 2.1 4 2.1 5.5 0 1.9.5 2.9 1.4 2.9 1.7 0 4.9-12.3 3.3-12.9-.5-.2-1.3.2-1.7.9-.5.8-1.6.6-4.1-.9-4.2-2.6-9.1-2.6-14.6-.1zm91.9 19.3c-18.9 22.4-23.7 27.3-27.7 28.3-1.4.3-2.5 1.3-2.5 2 0 1.2 1.7 1.4 8.7 1.2 5.5-.2 8.8-.7 9-1.5.2-.6-.6-1.3-1.9-1.5-3.9-.5-3.1-3.2 3.3-10.1l6.1-6.7h14.1l-.7 3.7c-1.4 9-2.6 11.4-6.2 12.9-1.9.8-3.4 1.9-3.4 2.4 0 1.5 20.2.8 20.7-.6.2-.6-1-1.4-2.7-1.7-2.4-.5-3-1.2-3-3.3 0-2.2 8-39.4 9.6-44.7.4-1.3-.1-1.7-2.5-1.7-2.7 0-4.9 2.2-20.9 21.3zm14.3-7.6c-.8 2.7-2.1 7.4-3 10.5l-1.6 5.8h-5.4c-3 0-5.5-.3-5.5-.6 0-.5 16.2-20.4 16.6-20.4.1 0-.4 2.1-1.1 4.7zm129.1-11.5c-1.2 2-4.6 27-4.6 34.3 0 3.4 1.8 3.2 2.5-.3.3-1.5 2.7-9.1 5.2-16.9 4-12.2 4.5-14.5 3.5-16.7-1.4-3.2-4.7-3.4-6.6-.4zm-447.9-.6c-1.1 1.2.3 2.4 2.8 2.4 1.2 0 2.5.7 2.9 1.5.7 1.8-7.9 36.6-10 40.8-.9 1.7-2.6 3-4.4 3.3-1.6.4-3.1 1.3-3.4 2-.5 1.2 2.6 1.4 19.6 1.2l20.2-.3 2.3-6c3.5-9.1 3.6-9.5 1.9-9.5-.8 0-2.3 1.6-3.2 3.5-2.3 4.8-5.5 7.2-11.9 8.6-7.7 1.7-11.9.4-12.3-3.8-.4-3.5 7-32.9 9.4-37.5.9-1.8 2.6-3.1 4.4-3.4 1.6-.4 3.1-1.2 3.4-2 .4-1.1-1.5-1.4-10.3-1.4-5.9 0-11.1.3-11.4.6zm47.3.8c0 .9 1.2 1.6 2.8 1.8 2 .2 2.8.9 3 2.8.1 1.4-2 10.8-4.8 21-5.1 18.9-6.7 22-11.1 22-1 0-1.9.7-1.9 1.5 0 1.2 1.8 1.5 10.4 1.5 8.3 0 10.5-.3 11-1.5.3-1-.1-1.5-1.2-1.5-2.5 0-4.2-2-4.2-4.8 0-3.1 7.6-31.5 9.7-36.5 1.2-2.7 2.4-3.9 4.6-4.5 1.7-.4 3.2-1.3 3.5-2 .3-.9-2.5-1.2-10.7-1.2-9 0-11.1.3-11.1 1.4zm25.5-.4c-.6 1 0 1.4 4.8 2.4 5.4 1.2 5.5 3.9.7 21.8-4.8 18.5-6 20.9-10.6 23.2-5.9 2.8-4.1 3.7 6.3 3.4 5.3-.2 9.8-.8 10-1.3.1-.6-1.1-1.8-2.7-2.7-1.9-1.1-3-2.5-3-3.9 0-2.5 7-30 7.9-31.1.4-.4 4.4 8 9.1 18.8 4.6 10.7 8.8 19.8 9.3 20.1 1.8 1.1 2.9-1.8 8.3-22.3 3-11.5 6.2-21.9 7-23.2.8-1.3 2.6-2.7 4-3.2 4.9-1.9 2.4-3-6.6-3-6.6 0-9 .3-9 1.3 0 .7 1 1.7 2.3 2.2 3.8 1.7 3.3 7.7-3 29.4l-1.5 5.4-8.2-18.9-8.2-18.9-8.1-.3c-4.9-.2-8.4.1-8.8.8zm59.5.5c0 .9.9 1.5 2.5 1.5 4.8 0 4.7 1.1-3.2 30-3.5 12.8-5 15.7-8.6 16.2-1.1.2-2.2.9-2.5 1.5-.3 1 2.3 1.3 10.6 1.3 7.9 0 11.2-.4 11.5-1.3.2-.7-1-1.6-2.7-2.2-1.7-.6-3.2-1.8-3.4-2.9-.6-2.8 3.8-18.4 5.3-19 1.5-.5 15 17.6 15 20.2 0 1-.9 1.8-2.2 2-1.3.2-2.3 1-2.3 1.8 0 1.2 1.8 1.4 10.2 1.2 7-.2 10.3-.7 10.6-1.6.2-.6-.3-1.2-1-1.2-1.9 0-5.9-4.4-15.3-16.8-4.6-6-7.5-10.6-6.9-11.1 2.8-2.6 23.3-16.6 25.6-17.5 1.5-.6 3-1.6 3.2-2.3.4-1-1.7-1.3-9.4-1.3-8.2 0-10 .3-10 1.5 0 .8.9 1.5 2 1.5 3 0 2.4 2.2-1.7 6.1-5.5 5.2-17.3 13.3-17.3 11.8 0-1.7 3.8-14.1 4.8-15.7.5-.7 2.2-1.6 3.7-2 1.6-.5 3-1.3 3.3-2 .3-.9-2.6-1.2-10.7-1.2-9.2 0-11.1.3-11.1 1.5zm110.3 5.5c-3.5 7.8-2.4 9.5 2.1 3.5 5.4-7.1 17.7-10.2 18.4-4.7.4 2.9-8.6 36.8-10.6 39.9-.8 1.3-2.9 2.5-4.8 2.9-2 .4-3.4 1.2-3.4 2 0 1.2 2.1 1.4 11.7 1.2 7.4-.2 11.8-.7 12-1.4.2-.6-1-1.4-2.6-1.7-1.6-.4-3.4-1.4-3.9-2.4-1.3-2.5 8.9-40.1 11.4-42 2.7-1.9 8.7-1.6 11.1.6 1.1 1.1 2.4 3.6 2.7 5.5.7 3.5 2.3 4.8 3 2.3.3-.6.7-3.8.9-7l.6-5.7h-45.5l-3.1 7zm100.7-5.6c0 1 .9 1.6 2.5 1.6 3.2 0 4.4 2.4 3.4 6.9-2.5 11.4-9 33.6-10.4 35.7-.8 1.3-2.6 2.6-4 3-1.4.3-2.5 1.2-2.5 2 0 2.1 21.5 2 22.4-.1.4-1-.4-1.7-2.6-2.3-5.1-1.3-5.4-2.9-2.7-12.8 2.4-8.7 2.5-8.9 5.4-8.9 2.9 0 3.2.4 8 12.8l5 12.8 6.4-.3c4.1-.2 6.6-.8 6.9-1.6.2-.7-.5-1.2-1.5-1.2-4 0-6.9-4.2-12.2-17.7l-2-5.2 4.2-1.9c10.6-4.8 13.4-15.7 5.4-21.4-2.9-2.1-4.5-2.3-17.4-2.6-12.6-.3-14.3-.2-14.3 1.2zm25.7 3.1c4.9 3.5 3.4 12.8-2.6 15.9-4.1 2.2-13.1 3.2-13.1 1.5 0-2.2 4.2-16.3 5.2-17.7 1.4-1.7 7.9-1.5 10.5.3zm21.3 2.1c-3.5 7.6-3.4 7.4-1.7 7.4.8 0 2-1.1 2.7-2.5 3.4-6.4 16.4-11.1 18.8-6.9 1.1 1.9.7 3.6-4.7 23.8-4.4 16.5-5.9 19.4-10.1 20.2-1.6.4-3.1 1.2-3.4 2-.4 1.1 1.6 1.4 11.4 1.4 9.5 0 12-.3 12-1.4 0-.7-1.4-1.6-3-2-1.7-.3-3.3-1.3-3.7-2.2-.8-2.2 8.8-38.3 11-41.1 1.3-1.7 2.9-2.3 5.6-2.3 5.1 0 8 2.3 8.7 7.1.7 3.9 3.4 5.7 3.4 2.1 0-.9.3-4.1.6-7l.7-5.2h-45.4l-2.9 6.6zm49 38.8c-.6.8-1 2.5-.8 3.8.2 1.9.9 2.3 3.8 2.3s3.6-.4 3.8-2.3c.4-2.8-1.4-5.2-3.8-5.2-1 0-2.3.7-3 1.4z"/></svg>